<svg width="60" height="61" fill="none" xmlns="http://www.w3.org/2000/svg"><g clip-path="url(#a)" fill="#fff"><path d="m58.894 24.082-6.194-.687a23.512 23.512 0 0 0-1.75-4.219l3.893-4.865a1.25 1.25 0 0 0-.093-1.664l-7.072-7.065a1.25 1.25 0 0 0-1.664-.092L41.149 9.38a23.507 23.507 0 0 0-4.219-1.75l-.688-6.194A1.25 1.25 0 0 0 35 .325H25a1.25 1.25 0 0 0-1.242 1.112l-.688 6.188a23.519 23.519 0 0 0-4.219 1.75l-4.865-3.893a1.25 1.25 0 0 0-1.664.093L5.25 12.647a1.25 1.25 0 0 0-.091 1.664l3.897 4.865a23.508 23.508 0 0 0-1.75 4.219l-6.193.687A1.25 1.25 0 0 0 0 25.325v10c0 .637.48 1.172 1.112 1.242l6.188.688a23.516 23.516 0 0 0 1.75 4.219l-3.893 4.865a1.25 1.25 0 0 0 .093 1.663l7.072 7.073a1.25 1.25 0 0 0 1.664.085l4.865-3.891a23.512 23.512 0 0 0 4.219 1.75l.688 6.193A1.25 1.25 0 0 0 25 60.325h10a1.25 1.25 0 0 0 1.242-1.107l.688-6.193a23.512 23.512 0 0 0 4.219-1.75l4.865 3.892a1.25 1.25 0 0 0 1.664-.092l7.065-7.073c.45-.45.49-1.166.092-1.663l-3.891-4.865a23.506 23.506 0 0 0 1.75-4.22l6.194-.687A1.25 1.25 0 0 0 60 35.325v-10a1.25 1.25 0 0 0-1.106-1.243ZM57.5 34.206l-5.909.658a1.25 1.25 0 0 0-1.07.92 21.124 21.124 0 0 1-2.146 5.188 1.25 1.25 0 0 0 .105 1.41l3.716 4.644-5.488 5.489-4.645-3.717a1.25 1.25 0 0 0-1.41-.105 21.126 21.126 0 0 1-5.187 2.147 1.25 1.25 0 0 0-.92 1.07l-.658 5.915h-7.763l-.664-5.915a1.25 1.25 0 0 0-.92-1.07 21.124 21.124 0 0 1-5.188-2.147 1.25 1.25 0 0 0-1.41.105L13.3 52.515 7.81 47.026l3.717-4.639a1.25 1.25 0 0 0 .105-1.408 21.129 21.129 0 0 1-2.147-5.188 1.25 1.25 0 0 0-1.07-.921L2.5 34.212V26.45l5.915-.664a1.25 1.25 0 0 0 1.07-.921 21.122 21.122 0 0 1 2.147-5.188 1.25 1.25 0 0 0-.105-1.408L7.81 13.624l5.489-5.49 4.651 3.717a1.25 1.25 0 0 0 1.409.105 21.13 21.13 0 0 1 5.188-2.146 1.25 1.25 0 0 0 .92-1.07l.658-5.915h7.757l.657 5.915c.057.512.423.937.921 1.07a21.123 21.123 0 0 1 5.188 2.146 1.25 1.25 0 0 0 1.409-.105l4.645-3.716 5.488 5.495-3.716 4.645a1.25 1.25 0 0 0-.105 1.409 21.127 21.127 0 0 1 2.146 5.187 1.25 1.25 0 0 0 1.07.921l5.915.658v7.756Z"/><path d="M44.77 22.282c-4.72-8.434-15.38-11.445-23.813-6.726-8.433 4.719-11.445 15.38-6.726 23.814a1.25 1.25 0 0 0 1.973.274l8.165-8.165 2.884 3.847a1.25 1.25 0 0 0 1.884.134l7.865-7.866v4.482h2.5v-7.5H39.5c0-.69-.56-1.249-1.25-1.249h-7.498v2.5h4.482l-6.847 6.847-2.884-3.848a1.25 1.25 0 0 0-.911-.5 1.273 1.273 0 0 0-.973.367l-7.946 7.945a14.97 14.97 0 0 1 2.223-15.287c5.24-6.395 14.672-7.33 21.066-2.09 6.393 5.24 7.329 14.673 2.088 21.068a15.1 15.1 0 0 1-1.55 1.628v-7.381h-2.5v9.206c-.8.466-1.637.853-2.499 1.16v-7.866h-2.5v8.518a15.05 15.05 0 0 1-2.499.216v-4.985h-2.5v4.781a14.888 14.888 0 0 1-2.499-.642v-6.638h-2.5v5.487a15.085 15.085 0 0 1-2.018-1.395l-1.588 1.93a17.494 17.494 0 0 0 19.646 1.748c8.432-4.718 11.444-15.38 6.725-23.814Z"/></g><defs><clipPath id="a"><path fill="#fff" transform="translate(0 .325)" d="M0 0h60v60H0z"/></clipPath></defs></svg>