<svg version="1.0" xmlns="http://www.w3.org/2000/svg" width="400" height="400" viewBox="0 0 300 300"><path d="M.4 4.7C.9 8.9 7.1 76.2 10 109c.5 6.3 2.1 23.4 3.4 38 1.4 14.6 3 31.9 3.5 38.5 3.1 35.3 8.2 88.9 8.5 89.2.2.2 28.3 6 62.5 12.8l62.1 12.4 62.1-12.4c34.2-6.8 62.3-12.6 62.5-12.8.3-.3 5.4-53.9 8.5-89.2.5-6.6 2.1-23.9 3.5-38.5 1.3-14.6 2.9-31.7 3.4-38 2.9-32.8 9.1-100.1 9.6-104.3l.7-4.7H-.3l.7 4.7zm272 24c-.7 6.2-3.2 34.3-5.4 58.8-1.1 12.6-2.7 30-3.5 38.5-1.6 17.7-3.1 33.5-8.1 88.5-1.9 21.4-3.7 39.2-4 39.4-.2.3-23.2 5-50.9 10.6L150 274.6l-50.5-10.1c-27.7-5.6-50.7-10.3-50.9-10.6-.3-.3-5-50.2-10.5-110.9C32.6 82.2 27.9 30.8 27.6 28.7l-.4-3.7h245.6l-.4 3.7z"/><path d="M55.4 56.7c.3 3.8.9 9.4 1.2 12.5l.7 5.8 64.8.2 64.8.3-61.5 30.8L64 137.1v5.7c0 3.1.3 8.7.7 12.4l.6 6.8 72.1.2 72.1.3-.2 4c-.2 7.1-3.4 42.9-3.9 44.6-.3 1.2-7.1 2.9-27.9 7l-27.5 5.5-27.8-5.6-27.7-5.5-1-11.7c-.6-6.4-1.3-11.9-1.6-12.3-.4-.3-6-.4-12.5-.3l-11.9.3 1.9 22.3c1.9 20.8 2.1 22.3 4 22.8 1.2.2 18.9 3.8 39.3 7.9l37.3 7.4 37.2-7.4c20.5-4.1 38.2-7.7 39.3-7.9 1.9-.5 2.2-2.8 5.8-42.8 2.1-23.3 4-44.7 4.4-47.6l.5-5.2h-58.1c-31.9 0-58.1-.3-58.1-.8 0-.4 27.3-14.5 60.8-31.4l60.7-30.7 1.2-9.3c.6-5.1 1.2-10.8 1.2-12.6l.1-3.2H54.7l.7 6.7z"/></svg>