<svg version="1.0" xmlns="http://www.w3.org/2000/svg" width="400" height="400" viewBox="0 0 300 300"><path d="M138.9 1.8c-3.1 1.1-7.6 3.3-10 5-2.4 1.7-30.8 29.5-63.1 61.9-45.3 45.5-59.2 59.9-61.1 63.9-5.5 11-5.5 23.8 0 34.8 1.9 4 15.9 18.5 61.6 64.4 32.6 32.6 61.2 60.6 63.7 62.2 10.9 7 24.5 7.7 36.8 2 6.2-2.9 10.8-7.1 66.7-63.3 69.5-69.7 66-65.3 66-82.7 0-17.7 3.7-13.1-65.9-82.7C177.5 11.1 173.1 6.9 166.7 4 158-.1 147.3-.9 138.9 1.8zm22.7 14c2.3 1.2 27.9 26.1 62.6 60.9 63.4 63.5 62.7 62.7 62.8 73.3 0 10.8.4 10.3-63.6 74.1-32.4 32.3-60.5 59.5-62.4 60.5-5.1 2.7-16.2 2.5-21.5-.3-2.3-1.3-29.1-27.3-63.6-62-64.4-64.5-62.3-62.1-62.2-72.8.1-9.9.8-10.8 48.8-58.8C87.2 66.1 107.6 46 108 46c.3 0 3.8 3.2 7.7 7l7 7.1-2.4 6.1c-4.7 11.6-1.9 25.8 6.8 34.6 3.7 3.8 10.1 7.8 14.2 8.7l2.7.7v33.4c0 26-.3 33.4-1.2 33.4-2.8 0-11.5 4.9-15.1 8.4-9 8.9-12.1 23.2-7.6 35.1 3 8 10.4 15.4 18.4 18.4 7.7 3 18.8 2.6 25.8-.8 6.4-3.1 12.4-9.3 15.5-15.9 2.2-4.7 2.7-7.1 2.7-13.7 0-6.7-.4-8.9-2.8-13.7-3.4-7-11.2-14.2-17.8-16.5l-4.9-1.8v-66l5.7-2.3 5.8-2.2 9.8 9.8 9.8 9.8-2.3 4.9c-3.4 7.4-3.2 19 .3 26.5 3.3 7 8.9 12.6 15.9 15.9 4.6 2.2 6.9 2.6 14 2.6 7.3 0 9.2-.4 13.7-2.8 6.6-3.4 11.6-8.4 15-15 2.4-4.5 2.8-6.3 2.8-14.2 0-10.6-2.2-16.3-8.9-23-6.8-6.7-12.5-9-23.1-9-7.5 0-9.7.4-13.4 2.4l-4.4 2.3-9.9-9.9-9.9-9.9 2.3-4.9c3.3-7.5 3.2-19.1-.3-26.6-5.5-11.7-15.2-18.1-28-18.7-6.3-.3-8.6 0-13.7 2.1l-6 2.4-7.3-7.3c-8.4-8.4-8.6-6.8 3.1-18.2 10.4-10.2 14.8-12.4 24.1-11.8 3 .2 7.3 1.3 9.5 2.4zm.1 46.8c4.4 3.5 8.3 10.5 8.3 14.7 0 9-6.1 17.3-14.2 19.6-19.1 5.4-33.2-18.3-19.2-32.3 4.4-4.4 8.1-5.7 15.1-5.3 5.2.2 6.9.8 10 3.3zm61.1 62.9c16.1 6.8 16.1 29.2 0 36-9.6 4-20.5-.4-24.9-10-7.3-15.8 8.9-32.6 24.9-26zm-63.4 66c7.7 3.7 12.2 14.1 9.7 22.6-3.2 10.5-15.5 16.7-25.8 12.8-3.8-1.4-9.2-6.7-10.9-10.6-2-4.6-1.7-11.7.5-16.1 5.2-10.1 16.1-13.6 26.5-8.7z"/></svg>