<svg version="1.0" xmlns="http://www.w3.org/2000/svg" width="898.667" height="572" viewBox="0 0 674 429"><path d="M279 39.4c-1.1 1.4-3 7.9-5.1 17.5-.5 2.5-1.3 5.9-1.8 7.5C267.7 79 266.7 82 266 82c-1.4 0-2-4.3-2-13.8 0-5-.4-9.2-.8-9.2-1.6 0-13.8 10.7-18.3 16.1-20.4 24.1-29.7 52.5-26.8 81.9 1.5 15.9 6.3 32 12.3 42 5.3 8.7 5.4 6.1-1.4 32.5-5 19.1-5.9 22.9-6 24.2 0 1 4.4 1.3 18.9 1.3h18.9l1.5-5.3c.8-2.8 2.2-7.9 3-11.2.9-3.3 2.3-8.9 3.2-12.5 3.3-12.8 4.4-17.5 4.9-20.1.5-2.4 8.6-10.4 23.8-23.5 3.1-2.7 9.4-8.4 14.1-12.7 4.8-4.3 9.3-7.7 10.5-7.7 1.3 0 17.3 15.4 48.3 46.5l46.3 46.5h24.7c13.6 0 25-.3 25.3-.8.2-.4-25.6-27.1-57.5-59.2-31.8-32.2-57.9-59-57.9-59.6 0-.7 11.8-11.7 26.2-24.5 14.3-12.9 26.6-23.9 27.2-24.4.6-.6 5.8-5.3 11.6-10.4 5.8-5.2 14.3-12.9 19-17.1 4.7-4.2 11.7-10.5 15.5-13.9 3.9-3.5 7.2-6.7 7.3-7.2.2-.5-11-.9-25.8-.9h-26.2l-15.5 13.7c-8.6 7.6-17.9 15.8-20.7 18.2-4.7 4-17.5 15.3-20 17.6-.6.6-4.7 4.2-9.1 8-13.7 12-15.8 13.9-21 18.5-2.7 2.5-8.8 7.9-13.5 12-4.7 4.1-9.1 8.1-9.8 8.8-3.3 3-4.2-2.2-1.8-10.4 2.1-7.2 6.8-25.7 10.1-39.4 1.4-5.9 4.6-18.6 7.1-28.5.8-3.3 2.2-8.3 3.1-11.2 2.6-8.5 2.9-8.3-17-8.3-14 0-17.7.3-18.7 1.4z"/><path d="M327.3 38.7c-.7.3-1.3 1.3-1.3 2.3 0 1-.6 4-1.4 6.6-.8 2.7-2.2 7.8-3.1 11.4-.9 3.6-2.3 8.5-3.1 11-.8 2.5-1.4 5.5-1.4 6.8 0 1.3-.5 3.2-1 4.3-.6 1-1.5 3.8-2 6.1-.4 2.4-1.8 7.9-3 12.3-1.1 4.4-1.9 8.8-1.8 9.8.3 1.8.4 1.8 2.3 0 2.2-2.1 23.7-21.2 48.3-43.1 8.9-7.9 16.2-15.1 16.2-15.8 0-.8-1.2-1.9-2.7-2.4-1.6-.6-3.7-1.4-4.8-1.9-2.6-1.2-10.4-3.6-18-5.5-6.1-1.5-21-2.8-23.2-1.9zM417.9 90.3c-.9.7-4.7 4-8.5 7.3-12.1 10.7-23.4 20.7-33.8 29.7-5.6 4.9-10.3 9.5-10.4 10.4-.4 1.4 54.4 57.4 58 59.4 1.8.9 1.9.8 6.8-10.6 4.3-10 7-25.1 7-39.5 0-17.3-3.4-31.9-11.2-47.7-4.6-9.5-5.6-10.6-7.9-9zM312.5 183.1c-4.4 3.9-12.9 11.5-19 16.9l-11 9.7-2.2 8.9c-1.2 4.9-3 12.1-4 16-1 3.9-1.7 7.6-1.5 8.2.5 1.5 9.2 5.5 18.7 8.5 26.8 8.6 51 7.5 77.5-3.6 9.4-3.9 14-6.6 14-8.1 0-1.4-62.1-63.6-63.5-63.6-.6 0-4.6 3.2-9 7.1zM163.7 294.5c-2.6.7-5.5 1.9-6.3 2.6-4.9 4.1-9.2 17.3-9.3 28.8-.2 10.7 4.7 17 13.9 17.9 7.4.7 11.4-.5 15.9-4.6 5.6-5 8-11.9 8.7-24.7.5-8.6.3-10.5-1.3-13.5-3.4-6.1-12.8-9-21.6-6.5zm11.1 9.7c1.8 1.8 1.5 16.6-.4 22.7-1.9 5.8-5 8.4-9.7 7.9-2.3-.2-3.6-1.2-5-3.6-1.9-3.2-1.9-3.9-.7-12 2-13.1 4-16.2 10.5-16.2 2.2 0 4.6.5 5.3 1.2zM570.8 294.2c-9.4 2-14.6 10.9-12.2 20.7.7 2.9 1.8 4 5.4 5.8 2.5 1.2 6 2.2 7.8 2.3 4.4 0 8.6 4.1 7.6 7.3-1 3-3.3 4.6-6.9 4.7-3.8 0-4.8-.7-6.9-4.8-1.3-2.6-2.2-3.2-4.9-3.2-5 0-6.1 1.2-5.4 6 .3 2.3 1.3 5 2.2 6 6.7 7.4 24.5 6.4 30.3-1.8 1.7-2.3 2.2-4.5 2.2-9.5 0-6-.2-6.7-3-9.1-1.7-1.4-4.7-2.8-6.8-3.1-8.8-1.4-12.9-5.5-10.2-10.4.8-1.6 2.1-2.1 5.4-2.1 4.7 0 6 1 7 5.2.6 2.5 1.1 2.8 5 2.8 4.7 0 5.6-.9 5.6-5.7 0-8.5-10.4-13.7-22.2-11.1zM100.7 296.7c-.3 1-1 4.7-1.6 8.3-2.5 15.8-3.5 25-3.6 31.5v7l3 .3c4.7.5 6.4-1.5 7.3-8.6 1.4-10.1 6-12.4 8.3-4 1.6 6.1 3.1 10.1 4.2 11.5 1.1 1.5 9.3 1.7 10.2.4.5-1-4.3-17.4-7.1-23.9-.8-1.8-1.4-3.9-1.4-4.6 0-1.2 6-9.2 11.8-15.6 1.2-1.4 2.2-2.8 2.2-3.2 0-.5-2.5-.8-5.5-.8-4 0-5.9.5-6.9 1.7-.8 1-3.3 4.2-5.6 7-5.3 6.9-7.6 7.1-6.5.5 1.4-9 1.5-8.7-3.7-9-3.8-.2-4.7 0-5.1 1.5zM209 297.2c-.5 1.3-1.4 6.3-2 11.3-.5 4.9-1.6 14.6-2.5 21.4-1.3 10.1-1.3 12.6-.3 13.3.7.4 6.5.8 12.9.8 12.7 0 13.8-.5 14.2-5.7l.2-2.8-7.2-.3c-9.8-.4-10-.7-8.4-13.5 2.4-19.6 3-25.1 2.5-25.9-.3-.4-2.3-.8-4.5-.8-3.1 0-4.1.5-4.9 2.2zM256.1 296.4c-.7.8-1.9 6.8-2.7 13.3-.8 6.5-2 16.4-2.7 22.1-1.6 12.8-1.8 12.7 12.8 12 11.2-.6 15.1-2 18.5-6.7 3-4.3 3.8-12.3 1.5-15.7-1.7-2.6-1.6-2.8.4-6.9 4.1-8.3 3.4-14-2.1-17.9-3.1-2.2-24-2.3-25.7-.2zm18.9 10.1c1.2 2.3 1.1 2.8-1 5-3.9 4.2-10 2.9-10-2.1 0-4.4 1-5.4 5.4-5.4 3.5 0 4.5.4 5.6 2.5zm-2.2 17.7c1.3 1.3 1.6 5.7.4 7.4-2.4 3.7-9.6 4.5-11.3 1.3-1.3-2.5-.4-8.5 1.4-9.2 2.4-1 8.3-.7 9.5.5zM306 296.5c0 .8.4 2.4.9 3.7.5 1.3 1.7 5.2 2.6 8.8.9 3.6 2.4 8.4 3.2 10.8.9 2.6 1.6 8.3 1.7 14l.1 9.7 3 .3c4.8.5 6.5-1.6 7.2-8.3.5-5.8 3.5-12.2 15.8-34.4 1.3-2.4 2.2-4.8 1.9-5.3-.3-.4-2.7-.8-5.3-.8h-4.8l-3.7 8c-2.1 4.4-4.2 8.3-4.8 8.6-1.8 1.2-3.8-2.2-4.8-8-.5-3.2-1.5-6.4-2.1-7.2-1.6-2-10.9-1.9-10.9.1zM386.7 295.6c-.4.4-.7 2.1-.7 3.8 0 1.7-.7 7.8-1.5 13.6-.9 5.8-2.2 14.5-2.9 19.5-1 6.1-1.1 9.4-.4 10.2 1.3 1.6 25 1.8 27.9.3 1.3-.8 1.9-2.1 1.9-4.5V335h-7.9c-9.4 0-11.6-1.3-10.5-6.4 1-4.9 2.1-5.5 9.7-5.8 6.8-.3 7.1-.4 7.8-3.1 1.3-4.8.3-5.6-6.8-5.9-7.6-.3-9.4-1.8-7.7-6.5.9-2.7 1.2-2.8 9.6-3.3 4.8-.3 9.1-1 9.7-1.5.5-.6 1.1-2.4 1.3-4l.3-3-14.6-.3c-8-.1-14.8.1-15.2.4zM436.4 296.1c-.4.7-1.1 4.6-1.5 8.8-.9 9.3-2.6 22.4-4.1 31-.9 5.2-.8 6.5.3 7.2 1.8 1.1 24 1.1 25.7 0 .8-.4 1.4-2.4 1.5-4.2l.2-3.4-7.3-.5c-4.7-.3-7.6-1-8.1-1.9-1.1-1.7-.5-9.8 1.5-21.1.9-4.7 1.4-10.3 1.2-12.5-.3-3.9-.4-4-4.5-4.3-2.5-.2-4.4.2-4.9.9zM483.2 296.3c-.6.7-1.5 5.3-2.1 10.2-1.6 15.1-4.2 33.8-4.7 34.6-1.1 1.9 4.3 2.9 14.9 2.9 12.4 0 13.3-.4 13.9-5.5l.3-3-7-.3c-3.8-.2-7.5-.8-8.2-1.4-1.7-1.4-1.6-8.5.1-18.9 1.3-7.4 2-14.9 1.7-18.7-.1-1.6-7.5-1.6-8.9.1zM530.1 296.3c-.6.8-1.8 7-2.6 13.8-.8 6.8-2 16.5-2.6 21.6-.7 5-.9 9.9-.6 10.7.8 2 7 2.1 8.6.2 1.1-1.3 3.3-16.1 5.1-34.3.5-5 1-9.5 1.1-10 .1-.4.1-1.4 0-2.1-.1-1.7-7.5-1.6-9 .1z"/></svg>