<svg version="1.0" xmlns="http://www.w3.org/2000/svg" width="64" height="64" viewBox="0 0 48 48"><path d="M8.2 6.2C5.9 8.5 7.1 17 9.7 17c1.2 0 1.4-.9.9-4.5L9.9 8H38l-.5 5.7c-.3 3.2-.8 7.9-1.1 10.5-.4 4.2.7 7 2.2 5.5.3-.3 1-5.4 1.5-11.2.7-7.8.6-11.1-.2-12.1-1.5-1.9-29.9-2-31.7-.2z"/><path d="M15 15.2c0 1.3.3 4 .6 6l.7 3.8H29v3c0 2.3-.6 3.3-2.5 4-3.1 1.2-7.5-.3-7.5-2.5 0-.8-.7-1.5-1.6-1.5-1.1 0-1.4.8-1.2 2.7.2 2.3 1.1 3.1 4.3 4.2 3.5 1.2 4.5 1.1 7.8-.2 3.6-1.6 3.7-1.7 3.7-7.1V22h-6.4c-4.9 0-6.5-.4-7-1.6-1.5-4-.9-4.4 6.9-4.4 6 0 7.5-.3 7.5-1.5S31.3 13 24 13c-8.7 0-9 .1-9 2.2z"/><path d="M8.7 29.2c.3 4.6.9 9 1.3 9.8.5.8 3.9 2.5 7.7 3.8l6.8 2.3 6.4-2.4c6.7-2.5 8.4-4.3 7.9-8-.4-2.8-2.1-2.5-2.8.5-.4 1.7-2.1 2.9-6.2 4.5L24.2 42l-6.1-2.2-6.1-2.2v-5.2C12 25.3 11 21 9.4 21c-1.1 0-1.2 1.7-.7 8.2z"/></svg>