<svg version="1.0" xmlns="http://www.w3.org/2000/svg" width="400" height="400" viewBox="0 0 300 300"><path d="M160.5 2.5C158.8 4.1 158 6 158 8.3c0 5.6 2.4 7.6 12.1 9.7 55.7 12.1 98.1 54.2 111.4 110.5 2.6 10.8 4.5 13.5 9.5 13.5 3.1 0 7.6-3.1 8.5-5.9 1.5-4.9-6.2-30.7-14-46.7-21.3-43.9-60.5-75.4-108-87-12.5-3-14-3-17 .1zM51.7 18.1C44 20 39.3 23.5 24.4 38.4 7.6 55.1 4 60.6 1.3 73.4c-4.9 23.1 8.2 63.7 32.7 101 33.7 51.3 80.4 91.2 132.9 113.5 24.8 10.6 45.6 14.2 60.9 10.6 11.4-2.7 15.6-5.6 32.4-22.4 18.4-18.5 20.8-22.3 20.8-33.6 0-11.9-1.9-14.6-26.8-39.6-24.8-24.9-27-26.4-38.7-26.3-10 .1-15 2.9-29.4 17-6.5 6.2-12.4 11.4-13 11.4-2 0-14.5-7.6-22.9-14-21.2-16-45.8-43.7-54.2-61l-2.1-4.5 12.1-12.3c14.4-14.5 17.1-19.3 17.1-29.8 0-11-1.9-13.8-27.3-39.1C72.4 21 69.3 18.7 60 17.6c-2.5-.2-6.2-.1-8.3.5zm32.1 38.1c11.2 11.2 21 21.7 21.8 23.5 2.7 6.2 1.2 8.7-13.6 23.3-7.5 7.4-14.2 14.5-14.8 15.7-2 3.7-1.3 8.6 2.3 16.1 14.5 30.4 49.9 66.3 82.5 83.9 14.4 7.7 15.1 7.5 33.5-10.6 15.6-15.4 18.1-16.8 24.7-13.7 5 2.4 41.4 39.4 43.3 44 2.7 6.4 1 9.3-14.4 24.9-17.5 17.8-19.9 19.2-34.1 19.2-18 0-34.7-5.5-62.5-20.3C99.1 233.5 51.3 182 28.7 129c-13.2-31.3-14.9-51.8-5.3-64.9 6.1-8.2 27-27.9 30.7-28.9 6.3-1.6 8.4-.1 29.7 21zM159.8 55.9c-6.9 3.4-5.8 12.5 1.7 14.8 20.3 6.1 26.6 8.9 35.5 15.8 15.2 11.7 25.4 27 29.9 44.7 2.5 9.9 3.4 11.4 7.1 12.6 3.6 1.3 8.6-.1 10-2.8 3.5-6.6-4.5-31.1-14.8-45.5-12.5-17.3-31.3-31.3-50.3-37.4-10.9-3.5-15.5-4.1-19.1-2.2z"/></svg>