<svg version="1.0" xmlns="http://www.w3.org/2000/svg" width="400" height="400" viewBox="0 0 300 300"><path d="M148.7 29c-14.2 2.4-31.5 10.2-42.4 19l-6.2 5h-21c-17.7 0-21.2.2-22.5 1.6-2 2-2 3.8 0 5.8C57.9 61.7 61 62 75.1 62H92l-3.2 4.5-3.2 4.5H9v-9h15.8c16.6 0 18.2-.4 18.2-4.5 0-4.2-1.5-4.5-20.2-4.5-17.7 0-17.9 0-20.3 2.5L0 57.9v84.4c0 81.7.1 84.6 1.9 86.8l1.9 2.4 31.6.3c33.3.3 35.6 0 35.6-4.1 0-4.6-.7-4.7-32.2-4.7H9V80h35.5c19.5 0 35.5.1 35.5.2 0 .2-1.4 4.1-3 8.8l-2.9 8.5-23 .5c-17 .4-23.3.8-24.3 1.8-1.7 1.7-2.4 35.4-.9 39.5l1 2.7 23.7.2 23.6.3 1.8 5.7 1.8 5.8H53.5c-22.3 0-24.5.2-26.6 1.9-2.1 1.6-2.2 2.2-1.1 4.5L27 163h54.9l3.6 5.5c1.9 3.1 3.5 5.8 3.5 6 0 .3-14 .5-31 .5H27l-1.2 2.5c-.9 2.1-.8 2.8.7 4.5 1.7 1.9 3.1 2 36.3 2h34.4l4.9 4.4c10.4 9.3 24.4 16.9 38.4 20.8 6.7 1.8 10.6 2.2 23.5 2.2 14-.1 16.4-.3 24.5-2.8 5-1.5 11.6-4 14.7-5.5l5.7-2.7 5.8 5.4c5.6 5.2 5.9 5.4 10.5 5 4.6-.5 4.7-.4 11 5.9l6.2 6.3h-78.5c-81.8 0-80.9 0-80.9 4.1 0 3.9 2.7 4.9 13.1 4.9 6 0 9.9.4 9.9 1s-.7 3.7-1.6 6.9l-1.7 5.9-7.2.4c-5.8.3-8 .9-11.3 3.1-6.5 4.2-11 15.5-8.3 20.6l1.2 2.1h60.8c52.9 0 61-.2 62.1-1.5.8-1 1.1-3.5.8-7-.9-10.2-9.3-17.5-20.5-17.5h-6.2l-1.7-5.8c-.9-3.1-1.9-6.3-2.1-6.9-.4-1 8.1-1.3 40.4-1.3h40.8l10 10.1c12 12.1 15.7 14.3 23.2 13.7 6.6-.6 10-2.9 13.1-8.8 4.6-9.2 2.6-14.3-11.2-28l-9.6-9.5v-74.1c0-76.5-.1-79.3-4-81.4-1.1-.6-11.5-1-24-1h-22.2l-4.6-4.1c-9.9-8.7-26.9-16.6-42-19.5-7.9-1.5-23.6-1.7-31.5-.4zm36.8 10.4c29.9 8.3 53.4 33.3 59.6 63.5 1.1 5 1.9 6.6 3.7 7.4 1.9.9 2.7.7 4.3-1l2-2-2-8.4c-1.1-4.6-2.9-10.6-4-13.2-1.2-2.7-2.1-5.1-2.1-5.3 0-.2 4.7-.4 10.5-.4H268v120.4l-7.4-7.3c-6.1-6.1-7.3-7.8-6.5-9.2 2.1-3.9 1-7-4.6-12.8l-5.5-5.8 3.5-7.6c4-8.7 7.5-22.1 7.5-28.9 0-3.7-.4-5-2-5.8-3.9-2.1-5.3.1-7.7 12.2-6 30.6-26.4 53.8-56.3 63.9-8.1 2.7-11.3 3.3-22 3.6-14.3.6-22.3-.8-34.5-5.6-25.4-10.2-44.6-33.1-50.6-60.6-2-9.2-1.5-27.4 1-37 4.1-15.7 15-33.3 26.4-42.7 10.7-8.9 23.7-15.3 37.2-18.4 8.1-1.8 30.9-1.2 39 1zM268 66.5V71h-26.5l-2.5-3.8c-1.4-2-2.6-4-2.8-4.5-.2-.4 6.9-.7 15.7-.7H268v4.5zm-196.1 54V134l-18.7-.2-18.7-.3-.3-13.3-.3-13.2h38v13.5zm170.9 56.8 3.2 3.3-11 10.9-11 10.9-3.4-3.3-3.4-3.3 10.7-10.7c5.8-6 10.8-10.9 11.2-11 .3 0 1.9 1.4 3.7 3.2zm26.5 36.5c19.9 20.1 21.7 22.2 21.7 25.4 0 4.5-3.7 8.1-8.2 8-2.8-.1-6-2.9-25.2-22.1L235.5 203l5.5-5.5c3-3 5.7-5.5 6-5.5.3 0 10.4 9.8 22.3 21.8zm-106.9 23.6c2.8 9.4 5 8.6-24.5 8.6h-26.1l.6-2.3c.4-1.2 1.2-4.3 1.8-7l1.1-4.7h45.6l1.5 5.4zm26.7 20.5c1.6 1.6 2.9 3.4 2.9 4 0 .8-16 1.1-53.5 1.1-58.3 0-57 .1-50.4-5.4l3.1-2.6h95l2.9 2.9z"/><path d="M153 46.1c-29.9 4.5-54.5 27.1-62.1 57-2 7.7-1.8 26.8.4 34.9.9 3.6 3.8 10.8 6.3 15.9 3.9 7.8 6.2 11 13.4 18.3 9.6 9.7 13 11.1 15.2 6.3 1.1-2.5.7-3-6.4-9.8-13.9-13.2-20.5-27-21.5-45.2-1.6-31.4 17.3-57.8 48.3-67.1 4.1-1.3 9.2-1.8 16.9-1.8 19-.1 33.2 5.9 46.6 19.4 12.7 12.7 18.9 27.9 18.9 46 0 11.5-1.7 18.9-6.9 29.5-9.3 19-27.8 32.2-49.6 35.5-8.7 1.3-15 .9-26.3-1.7-6.7-1.5-7.4-1.5-8.9-.1-1 1.1-1.3 2.5-.9 4.2.8 3.1 6.9 5.2 19.2 6.6 34.8 3.9 67.7-17.5 79.1-51.5 2.4-7.1 2.7-9.6 2.7-22 .1-15.4-1.5-22.8-7.4-34.6-13.9-27.4-46.7-44.3-77-39.8z"/><path d="M115.8 101.5c-1.5.9-3.5 2.9-4.3 4.5-3.7 7.2-.3 13.3 9.4 16.9 3.2 1.2 6.4 2.8 7.1 3.6 3.4 4.1-6.4 6.3-11.3 2.5-6.5-5.1-11.9.6-5.9 6.2 8.8 8.5 25.4 5.1 26.3-5.3.7-7.3-2.6-11.4-12.1-14.9-4.4-1.6-6-2.7-5.8-3.9.4-2.2 6-2.6 9.7-.6 6.5 3.3 9.8-3.4 3.9-7.8-3.6-2.7-13.2-3.4-17-1.2zM149.2 101.2c-.8.8-1.2 6.4-1.2 18.8s.4 18 1.2 18.8c1.6 1.6 18 1.6 19.6 0 1.8-1.8 1.4-5.6-.7-6.8-1.1-.5-4-1-6.5-1-4.6 0-4.6 0-4.6-3.4 0-3.5 0-3.5 5.1-3.8 9.6-.6 9.6-7 0-7.6-5.1-.3-5.1-.3-5.1-3.8V109h4.9c5.2 0 8.1-1.7 8.1-4.9 0-3.3-2.2-4.1-11-4.1-5.4 0-9.1.5-9.8 1.2zM191.5 101.6c-15 8.2-15.3 28.7-.5 36.1 8.9 4.6 18.7 2.2 25.4-6 2.9-3.6 3.1-4.5 3.1-11.7 0-8.7-1-10.9-7.9-16.4-3.2-2.6-4.7-3.1-10.4-3.3-4.8-.2-7.6.1-9.7 1.3zm16.6 10c7.3 6.6 2.5 19.4-7.2 19.4-7.2 0-11.9-4.3-11.9-11 0-9.9 11.7-15.1 19.1-8.4zM26.9 196.9c-2.1 1.6-2.2 2.2-1.1 4.5L27 204h21.3c15.2 0 21.6-.3 22.5-1.2 1.8-1.8 1.4-5.6-.7-6.8-1.2-.6-9.9-1-21.4-1-17.6 0-19.7.2-21.8 1.9z"/></svg>