<svg version="1.0" xmlns="http://www.w3.org/2000/svg" width="400" height="400" viewBox="0 0 300 300"><path d="M.4 4.7C.9 8.9 7.1 76.2 10 109c.5 6.3 2.1 23.4 3.4 38 1.4 14.6 3 31.9 3.5 38.5 3.1 35.3 8.2 88.9 8.5 89.2.2.2 28.3 6 62.5 12.8l62.1 12.4 62.1-12.4c34.2-6.8 62.3-12.6 62.5-12.8.3-.3 5.4-53.9 8.5-89.2.5-6.6 2.1-23.9 3.5-38.5 1.3-14.6 2.9-31.7 3.4-38 2.9-32.8 9.1-100.1 9.6-104.3l.7-4.7H-.3l.7 4.7zm272 24c-.7 6.2-3.2 34.3-5.4 58.8-1.1 12.6-2.7 30-3.5 38.5-1.6 17.7-3.1 33.5-8.1 88.5-1.9 21.4-3.7 39.2-4 39.4-.2.3-23.2 5-50.9 10.6L150 274.6l-50.5-10.1c-27.7-5.6-50.7-10.3-50.9-10.6-.3-.3-5-50.2-10.5-110.9C32.6 82.2 27.9 30.8 27.6 28.7l-.4-3.7h245.6l-.4 3.7z"/><path d="M113 133v83.1l-3.2-.6c-1.8-.4-6-1.2-9.3-1.8l-6-1.2-1-11.7c-.6-6.4-1.3-11.9-1.6-12.3-.4-.3-6-.4-12.5-.3l-11.9.3 1.9 22.3c1.9 20.8 2.1 22.3 4 22.7 4 1 62 12.5 62.8 12.5.4 0 .8-44.1.8-98V50h-24v83zM163 106v56l23.3.2 23.2.3-.2 4c-.2 7.1-3.4 42.9-3.9 44.6-.3 1.1-4.3 2.3-14.7 4.3-7.8 1.6-17.2 3.5-20.9 4.3l-6.8 1.5v12.4c0 6.8.4 12.4.9 12.4.8 0 58.4-11.4 62.6-12.4 1.9-.5 2.2-2.8 5.8-42.8 2.1-23.3 4-44.7 4.4-47.5l.5-5.3-24.8-.2-24.9-.3-.3-31.3L187 75h55.7l1.1-10.8c.7-5.9 1.2-11.5 1.2-12.5 0-1.6-2.6-1.7-41-1.7h-41v56z"/></svg>