<svg version="1.0" xmlns="http://www.w3.org/2000/svg" width="400" height="400" viewBox="0 0 300 300"><path d="M140.5 1.3c-13.1 4.4-23.9 14.9-33.2 32.3-2.6 4.8-5.9 11.9-7.4 15.8-2.1 5.3-3.3 7.1-4.6 7-1-.1-5.8-.6-10.8-1.2-31.7-4.1-55.5 3.9-64.2 21.5-3.4 7.2-4.2 18-1.9 27.3 2.3 9.3 10.4 25.1 18.1 35.3l6.6 8.7-6.3 7.9C28 167 21.3 178.4 17.7 188.7c-2.5 7.2-3.1 10.4-3.1 17.8-.1 7.7.3 9.8 2.6 14.7 4.8 10.3 14.4 17.7 27.9 21.4 8.6 2.4 26.8 2.8 38.8 1 5.8-.9 11-1.6 11.6-1.6.7 0 2.2 2.8 3.5 6.2 6.1 17 17.8 35.3 27.3 42.6 8.8 6.8 13.9 8.7 23.7 8.7 9.8 0 14.9-1.9 23.7-8.7 9.5-7.3 21.2-25.6 27.4-42.7l2.2-6.3 4.6.6c15.9 2.3 22.7 2.8 31.6 2.3 22.6-1.4 36.9-9.3 43.7-24.3 3.5-7.6 3.1-20.1-.9-31.7-3.6-10.3-10.3-21.7-19.1-32.8l-6.3-7.9 6.6-8.7c7.7-10.2 15.8-26 18.1-35.3 2.3-9.3 1.5-20.1-1.9-27.3-8.7-17.6-32.5-25.6-64.2-21.5-4.9.6-9.8 1.1-10.8 1.2-1.4.1-2.5-1.5-4.2-6.2-8.9-23.4-22.6-40.9-37.1-47.3-6-2.7-17.2-3.5-22.9-1.6zm20.6 20.3c2.3 1.6 6.2 5.4 8.6 8.4 4.2 5.2 14.8 25.4 15.5 29.3.2 1.5-1.5 2.4-9.7 5.1-5.5 1.8-13.5 4.7-17.8 6.5l-7.8 3.1-6.1-2.6c-3.5-1.4-11.4-4.4-17.8-6.5-9.4-3.1-11.4-4.2-11.2-5.6.7-3.8 9.4-20.8 13.7-26.8 4.5-6.3 10.2-11.6 14.6-13.5 1.3-.5 5-.8 8.1-.7 4.3.2 6.6 1 9.9 3.3zM85.4 73c3.2.5 6 1.1 6.1 1.2.2.2-.5 4.2-1.6 9-1 4.7-2.5 13-3.3 18.3-1.2 8.1-1.9 10-3.8 11.3-4.7 3.4-21.4 17.1-23.7 19.6-1.4 1.4-2.8 2.6-3.2 2.6-1.5 0-12.3-15.8-16-23.5-10-20.6-6-33 12.1-38.1 5.5-1.5 25.3-1.8 33.4-.4zm167.4 1.9c13.9 6.2 16.3 18 7.3 36.6-3.7 7.7-14.5 23.5-16 23.5-.4 0-1.8-1.2-3.2-2.6-2.3-2.5-18.9-16.2-23.6-19.5-1.9-1.3-2.6-3.8-4.8-16.4-1.4-8.1-2.9-16.4-3.5-18.4-.5-1.9-.8-3.7-.6-3.9 1.3-1.2 12.1-2 24.6-1.8 12.7.2 15.2.5 19.8 2.5zM119 81c3.6 1.1 7 2.3 7.7 2.7.7.5-3.1 3.2-9.9 7.1-6.1 3.5-11.2 6.1-11.5 5.9-.3-.4.5-4.8 3.2-16.5.4-1.6 1.1-2.2 2.3-1.8.9.3 4.6 1.5 8.2 2.6zm72.5-.8c2.7 11.9 3.5 16.1 3.2 16.5-.3.2-5.4-2.4-11.5-5.9-12.4-7.1-12.4-6.7-.7-10.4 8.8-2.8 8.4-2.8 9-.2zm-26 20.9c7.2 3.9 17.3 9.8 22.6 13.1l9.7 6.1.6 5.1c.8 6.7.8 44.5 0 48.5-.5 2.5-2.2 4.1-9.8 8.9-10 6.4-26.4 15.7-33.8 19.3l-4.8 2.3-4.7-2.3c-8.1-3.8-24.3-13.1-33.9-19.4-7.5-4.8-9.3-6.5-9.8-8.9-.8-4-.8-41.8 0-48.4l.6-5.1 9.7-6C126.4 105 147.2 94 150 94c1.4 0 8.4 3.2 15.5 7.1zM83 148.6v13.7l-7.2-6.5c-3.9-3.5-7.3-6.9-7.4-7.4-.2-.7 13.4-13.4 14.4-13.4.1 0 .2 6.1.2 13.6zm144.8-4.4c2.3 2.1 4 4.3 3.7 4.7-.2.5-3.6 3.7-7.5 7.1l-7 6.2v-27.4l3.3 2.7c1.7 1.5 5.1 4.5 7.5 6.7zM80 182c2.5 1.9 4.6 3.4 4.7 3.4.1.1.6 3.9 1.3 8.6.6 4.7 2 13.3 3.2 19.3 1.1 5.9 1.9 10.9 1.7 11.2-1.2 1.1-14.6 2.5-24.4 2.5-17.7 0-28.2-3.8-32.7-12-1.5-2.8-1.9-4.9-1.5-10.5.6-10.5 6.7-23.1 17.8-37.1l5.1-6.4 10.1 8.8c5.6 4.8 12.2 10.3 14.7 12.2zm174.5-8.5c5 6.9 10.8 18.2 12.4 24 1.7 6.1 1.3 13.6-.8 17.5-4.3 8.1-14.8 12-32.6 12-9.8 0-23.2-1.4-24.4-2.5-.2-.3.6-5.3 1.7-11.2 1.2-6 2.6-14.6 3.2-19.3.9-6.5 1.6-8.7 3.2-9.8 3.6-2.6 16.2-13 21.8-18.1l5.5-5 2.8 3.2c1.6 1.8 4.8 5.9 7.2 9.2zm-134.1 35.3c6.3 3.6 7.5 4.7 6.2 5.4-2.2 1.3-15.6 5.8-17.1 5.8-1 0-4.5-14.2-4.5-18.3 0-1.8.2-1.8 3.8.3 2 1.2 7.2 4.3 11.6 6.8zm73 2.3c-1 4.9-2.3 8.9-2.9 8.9-1.4 0-14.9-4.5-17-5.8-1.3-.7.7-2.3 9.7-7.5 6.2-3.6 11.5-6.1 11.7-5.6.2.6-.5 5.1-1.5 10zm-34.9 16.3c4.4 1.8 12.4 4.8 17.8 6.6 11.7 3.9 11.5 2.7 3.2 19.5-6.1 12.4-12.1 20.6-18.5 25-3.7 2.6-5.2 3-11 3s-7.3-.4-11-3c-6.4-4.4-12.4-12.6-18.5-25-8.3-16.8-8.5-15.6 3.2-19.5 5.4-1.8 13.2-4.8 17.3-6.5 4.1-1.8 8-3.3 8.5-3.4.6-.1 4.6 1.4 9 3.3z"/><path d="M140.1 124.7c-6.1 2.2-13.3 9.6-15.4 15.8-7.6 22.2 12.6 42.4 34.8 34.8 3.1-1 6.7-3.4 9.5-6.3 17.2-17.1 4.8-46.3-19.4-45.9-2.8 0-7.1.8-9.5 1.6z"/></svg>