<svg version="1.0" xmlns="http://www.w3.org/2000/svg" width="400" height="400" viewBox="0 0 300 300"><path d="M19.6 1.6C16 2.7 13.1 4.7 8.9 8.9-.7 18.6 0 7.1 0 150c0 142.8-.7 131.4 8.9 141.1 9.7 9.6-1.7 8.9 141.1 8.9 142.8 0 131.4.7 141.1-8.9 9.6-9.7 8.9 1.7 8.9-141.1 0-142.8.7-131.4-8.9-141.1C281.4-.7 292.9 0 149.6.1 41.2.1 23.8.3 19.6 1.6zm239.9 140.1c11.2 2.5 10.5 1.4 10.5 16.3 0 7.5-.4 13-.9 13-.6 0-2.5-.9-4.4-2-8.2-4.9-27.8-7.5-37-4.9-4.8 1.3-10.4 6.2-11.2 9.8-.9 4 1.6 9.3 5.8 12.5 1.9 1.5 8.6 5.1 14.9 8 18.7 8.6 21.9 10.6 27.8 16.5 8 7.9 10.3 14.3 9.8 27.1-.4 11.6-3.3 18.4-10.4 25-10 9.2-22.5 12.4-45.4 11.7-15.3-.5-23.9-2-30.2-5.3l-2.8-1.5v-29l3.3 2.4c9.6 7.3 22.7 11.1 35.2 10.5 12.6-.7 19.5-5.2 19.5-12.8 0-7.9-4.9-12-24-20.6-19.7-8.8-26.8-14.4-31.7-25.1-5.4-11.8-3.5-28 4.4-37.2 10.2-12 27.5-17.6 50.3-16.4 5.2.2 12.7 1.2 16.5 2zM174 154v12l-18.7.2-18.8.3-.3 53.8-.2 53.7h-29l-.2-53.7-.3-53.8-18.7-.3L69 166v-24h105v12z"/></svg>